<?xml version="1.0" encoding="utf-8"?>
<!-- Generator: Adobe Illustrator 26.3.1, SVG Export Plug-In . SVG Version: 6.00 Build 0)  -->
<svg version="1.1" id="레이어_1" xmlns="http://www.w3.org/2000/svg" xmlns:xlink="http://www.w3.org/1999/xlink" x="0px"
	 y="0px" viewBox="0 0 39.5 39.1" style="enable-background:new 0 0 39.5 39.1;" xml:space="preserve">
<style type="text/css">
	.st0{fill-rule:evenodd;clip-rule:evenodd;fill:#020202;}
	.st1{fill-rule:evenodd;clip-rule:evenodd;fill:#FFFFFF;}
</style>
<path class="st0" d="M0.9,38.8c0,0-0.9-0.6-0.9-2.1c0-6,0-21.3,0-21.3l12.2-8.9l12.1,8.8c0,0,0,16.6,0.1,22c0,1-0.4,1.4-0.4,1.4
	s-0.2,0.3-1.3,0.3c-4.1,0-14.5,0-19.6,0C1.2,39.1,0.9,38.8,0.9,38.8z"/>
<path class="st1" d="M2.8,36.5c0,0-0.5-0.5-0.5-1.6c0-4.9,0-17.8,0-17.8l9.8-6.9l9.8,6.6c0,0,0,13.8,0,18.4c0,0.9-0.4,1.2-0.4,1.2
	s-0.2,0.2-1.1,0.2c-3.5,0-12.1,0-16.1,0C3.1,36.8,2.8,36.5,2.8,36.5z"/>
<path class="st0" d="M30.6,38.9c-0.3-0.3-0.3-0.4-0.3-1.4c0-2.5,0-7.1,0-7.1l4.6-3.3l4.6,3.3l0,7.6c0,0,0,0.5-0.3,0.8
	c-0.2,0.3-0.7,0.3-1.1,0.3c-1.7,0-4.5,0-6.2,0C31,39.1,30.9,39.1,30.6,38.9z"/>
<path class="st1" d="M32.1,37.5v-6.2l2.8-2l2.8,2l0,6.2L32.1,37.5L32.1,37.5z"/>
<path class="st0" d="M11.2,7.9h2.1c0,0,0.6-5.9,7.1-6.1c4-0.1,6.3-0.2,9.1,0c2.8,0.2,3.8,3.7,4,5.9c0.3,5.5,0.4,20.4,0.4,20.4
	l1.8,0.7c0,0,0-15.5-0.4-20.9C35.1,6.4,34.8,4.3,34,3c-0.6-0.9-2-2.9-4.6-2.9c-2.6,0-4.6,0-9,0C12.4,0.1,11.2,7.9,11.2,7.9z"/>
</svg>
